<svg version="1" xmlns="http://www.w3.org/2000/svg" width="666.667" height="666.667" viewBox="0 0 500.000000 500.000000"><path d="M0 249.5V499h500V0H0v249.5zM107.8 207l2.7 5h6.7c6.4 0 6.6-.1 7.7-3 1-3 1.1-3 8.1-3s7.1 0 7.6 2.9c.5 2.3 1.3 3.1 3.5 3.6 3.9.9 8.9 5.2 10.5 9.2.8 1.8 1.4 6.4 1.4 10.3v7h-31.6l-3.8-3.9c-5.8-5.9-12.3-8.4-21-7.9-8.3.5-13.5 2.7-18.7 8l-3.7 3.8H23v-7.5c0-4.7.6-8.7 1.5-10.4 2.1-4.2 7.1-8 11.4-8.7 2.5-.4 4-1.3 4.7-2.7.7-1.8 1.7-2.2 5.9-2.2 4.4 0 5 .3 5.3 2.2.3 2.1.8 2.3 7.5 2.3h7.2l3.3-5 3.2-5h32l2.8 5zm94.3 12.8c6.9 7.7.8 18.2-10.6 18.2H188v13h-9v-16.8c0-9.3.3-17.2.8-17.6.4-.4 4.9-.6 10-.4 9.1.3 9.4.4 12.3 3.6zm27.9 2.7v6.5h13.9l.3-6.3.3-6.2 4.3-.3 4.2-.3v17.4c0 9.5-.2 17.6-.4 17.8-.3.3-2.3.3-4.5.1l-4.1-.4V237h-14v14h-9v-35h9v6.5zm64.9-5c3.8 1.9 7.7 6.6 9.1 11.1 3.6 10.7-5.4 23.4-16.5 23.4-8 0-16.1-7.4-17.2-15.8-.9-7 2.8-14.4 9.1-18.3 3.8-2.3 11.5-2.5 15.5-.4zM347 220v4h-8.9l-.3 13.7-.3 13.7h-7l-.3-13.7-.3-13.7H321v-8h26v4zm40.8-2.6c1.5.8 3.9 2.7 5.4 4.3 13.4 14.1-3.9 37.7-20.5 28-5.1-3-7.2-5.9-8.8-11.9-2-7.5 1.5-15.6 8.5-19.9 3.7-2.3 11.5-2.5 15.4-.5zm-279 20c3.1 1.6 7.4 6.1 9.1 9.3.6 1.2 1.1 4.6 1.1 7.5 0 10.6-7.9 18.3-18.7 18.2-17.8-.1-24.5-24-9.4-33.5 5.1-3.3 13.2-4 17.9-1.5zm-34.3 7.8c-2.3 10.9-.9 18.5 4.8 26 9.6 12.5 29.7 13.8 40.9 2.6 5.6-5.7 7.3-10.2 7.3-19.3 0-4.4-.4-9-.8-10.3l-.8-2.2H156v21.4c0 20.5-.1 21.4-2.3 24.7-1.2 1.8-3.8 4.4-5.6 5.6l-3.4 2.3H34.5l-3.9-2.3c-7-4-7.6-6.2-7.6-30.4V242h52.2l-.7 3.2zm118.1 24.7l5.9 7.8 5.7-7.8c5.3-7.3 6.1-7.9 9.3-7.9h3.5v36.1l-3.7-.3-3.8-.3-.3-10.9-.3-11-3.5 5.2c-3 4.6-3.9 5.2-6.9 5.2-2.9 0-4-.7-6.9-4.6l-3.5-4.6-.3 10.4-.3 10.3h-8l-.3-16.5c-.1-9 0-17 .2-17.7.3-.7 2.1-1.3 4-1.3 3.1 0 3.9.7 9.2 7.9zm72 9.6c3.9 9.3 6.9 17.3 6.7 17.7-.2.5-2.1.8-4.3.8-3.5 0-3.9-.3-5.4-4l-1.6-4h-14l-1.6 4c-1.5 3.7-1.9 4-5.4 4-2.2 0-4.1-.3-4.3-.8-.2-.4 2.2-7 5.4-14.7 9.4-22.5 8.3-20.7 13.1-20.3l4.2.3 7.2 17zm45.4-15.3c4.4 3 4.6 4.2 1.4 6.3-2.5 1.6-2.9 1.6-5.5.1-3.2-1.9-7.4-1.3-8.4 1.2-.8 2.1 1.6 3.9 6.6 4.7 9.1 1.6 13.9 8.4 10.2 14.7-4.2 7.3-16.2 9.1-22.3 3.3-3.8-3.6-3.8-5.1.1-7.1 3-1.5 3.2-1.5 4.6.5 1.7 2.5 7.4 2.9 9.3.6 1.6-1.9.6-3.2-3.3-4-13.5-3-17.7-10.8-9.8-18.6 3.5-3.5 4.4-3.9 8.8-3.9 3.5 0 6 .7 8.3 2.2zm47.8 2l.3 3.8h-9l-.3 13.7-.3 13.8-3.7.3-3.8.3V270h-9v-8.1l12.8.3 12.7.3.3 3.7zm39.2-.2v4h-7c-6.8 0-7 .1-7 2.5s.3 2.5 6 2.5h6v8h-12v7h14.1l-.3 3.7-.3 3.8-10.7.3-10.8.3V262h22v4zm38-2.5c3.2 1.7 6 6.1 6 9.5 0 2.8-2.6 7.7-4.6 8.8-1.5.8-.9 1.9 4 8 3.1 3.9 5.6 7.3 5.6 7.6 0 .4-2 .6-4.5.6-4.4 0-4.6-.2-9.7-7-6.8-9.1-8.3-9.1-8.3-.3v6.8h-8l-.3-17.8-.2-17.7h8.5c5.7 0 9.6.5 11.5 1.5zm50.5 1.5c3.1 2.9 3.1 3.4 0 5.4-2.3 1.5-2.7 1.5-5.6 0-2.5-1.2-3.7-1.4-5.6-.5-4.2 1.9-2.5 4.4 4.6 6.7 10.2 3.3 13.8 9.6 9 15.8-5.5 7-15.7 7.6-22.6 1.3-3.1-2.8-2.9-4.1 1.2-6 3.3-1.6 3.5-1.6 4.5.3 1.8 3.4 11.1 2.2 9.8-1.2-.3-.8-3.3-2.2-6.6-3.1-7.7-2.1-11.7-6.4-10.8-11.5.6-3.7 3.7-7.8 7.1-9.3 3.7-1.6 12.3-.4 15 2.1z"/><path d="M83 206.5c0 2.4.3 2.5 5.5 2.5s5.5-.1 5.5-2.5-.3-2.5-5.5-2.5-5.5.1-5.5 2.5zM188 227c0 2.7.3 3 3.4 3 3.8 0 6-1.9 5-4.4-.4-1.1-1.8-1.6-4.5-1.6-3.7 0-3.9.2-3.9 3zM282.3 225.5c-2.6 1.8-4.3 7.1-3.6 10.8 1.3 6.9 10.5 9.5 14.9 4.3 3.4-3.8 3.3-10.8-.1-14.1-2.8-2.9-7.9-3.3-11.2-1zM374.6 226.6c-5.4 5.4-2.4 15.6 5 17 2.4.4 3.7 0 6.1-2 3.9-3.3 4.9-7.3 2.9-11.9-2.6-6.2-9.3-7.7-14-3.1zM251.1 278.1c-.6 1.8-1.1 3.3-1.1 3.4 0 .2 1.5.5 3.4.7l3.5.4-1.5-3.4c-.8-1.9-1.4-3.6-1.4-3.8 0-.2-.4-.4-.9-.4s-1.4 1.4-2 3.1zM423.5 273c0 3 .1 3.1 4 2.8 3.5-.3 4-.6 4-2.8 0-2.2-.5-2.5-4-2.8-3.9-.3-4-.2-4 2.8z"/></svg>